<?xml version="1.0" standalone="no"?>
<!DOCTYPE svg PUBLIC "-//W3C//DTD SVG 20010904//EN"
 "http://www.w3.org/TR/2001/REC-SVG-20010904/DTD/svg10.dtd">
<svg version="1.0" xmlns="http://www.w3.org/2000/svg"
 width="950.000000pt" height="1280.000000pt" viewBox="0 0 950.000000 1280.000000"
 preserveAspectRatio="xMidYMid meet">
<metadata>
Created by potrace 1.15, written by Peter Selinger 2001-2017
</metadata>
<g transform="translate(0.000000,1280.000000) scale(0.100000,-0.100000)"
fill="#000000" stroke="none">
<path d="M6690 12790 c-764 -59 -1655 -287 -2465 -629 l-110 -47 -48 48 c-123
124 -322 236 -497 282 -304 80 -613 42 -1030 -126 -483 -196 -1102 -593 -1698
-1092 -73 -61 -136 -112 -140 -113 -4 -2 -24 24 -46 57 -49 77 -136 157 -211
195 -53 27 -70 30 -150 30 -81 0 -95 -3 -143 -30 -59 -32 -91 -66 -125 -129
-19 -34 -22 -56 -21 -136 1 -126 20 -176 137 -359 704 -1098 1285 -2600 1783
-4606 379 -1525 658 -3145 905 -5260 13 -104 26 -194 31 -200 5 -5 6 4 4 20
-3 17 -8 127 -11 246 -11 436 -72 1204 -155 1943 -16 143 -28 261 -26 263 10
10 143 -566 236 -1017 33 -157 59 -273 60 -258 1 70 -108 1096 -171 1597 -134
1081 -327 2266 -508 3111 -22 102 -37 188 -33 192 13 13 505 254 687 338 473
216 810 341 1130 420 241 59 364 73 590 67 266 -7 404 -39 704 -164 168 -70
217 -83 312 -83 95 0 150 16 297 89 528 262 1132 445 1772 536 354 50 506 59
940 59 389 0 521 -7 766 -41 l47 -6 -7 224 c-33 1091 -284 2112 -763 3109
-201 418 -489 893 -756 1243 -51 67 -95 125 -98 130 -9 12 -274 64 -424 83
-154 18 -598 27 -765 14z m-5750 -1915 c709 -608 1148 -1499 1289 -2615 33
-261 44 -498 38 -839 -5 -276 -22 -569 -34 -557 -2 2 -30 118 -63 257 -370
1599 -865 2987 -1356 3803 -30 49 -54 91 -54 93 0 7 75 -53 180 -142z"/>
<path d="M2824 2235 c3 -22 24 -263 46 -535 65 -810 99 -1327 101 -1555 3
-216 18 -24 25 310 9 446 -16 922 -67 1280 -21 150 -95 525 -105 534 -4 3 -4
-12 0 -34z"/>
</g>
</svg>
